<?xml version="1.0" encoding="UTF-8"?>
<svg id="Layer_1" data-name="Layer 1" xmlns="http://www.w3.org/2000/svg" viewBox="0 0 1657.14 920.8">
  <defs>
    <style>
      .cls-1 {
        stroke-width: 0px;
      }
    </style>
  </defs>
  <path class="cls-1" d="m827.19,920.8c-204.8,0-409.6-2.05-614.4,0C96.67,920.7,2.3,827.7,0,712.12v-.22s0-502.78,0-502.78c0-.44,0-.96,0-1.48C0,104.07,75.67,18.18,174.74,2.22l1.19-.16c7.51-1.31,16.16-2.06,24.98-2.06.72,0,1.44,0,2.16.01h-.11,1252.76c102.4,0,197.84,90.52,199.89,191.9,2.46,117.96,1.23,236.13,1.23,354.3,0,61.44,0,122.88-1.23,182.89-8.3,105.26-93.97,188.02-199.74,191.68h-.35s-628.32.01-628.32.01Zm0-30.11h618.7c.86.02,1.86.02,2.87.02,98.13,0,177.78-79.15,178.58-177.1v-.08c1.23-168.62,1.23-337.24,0-505.86-1.14-97.12-79.45-175.58-176.41-176.95H206.24c-1.3-.04-2.84-.06-4.38-.06-10.11,0-20,.99-29.56,2.88l.96-.16C90.78,51.32,29.9,123.7,29.9,210.31c0,.66,0,1.32,0,1.98v-.1,497.26c0,13.57,1.49,26.78,4.32,39.5l-.22-1.21c17.25,82.39,89.29,143.39,175.59,143.39,1.06,0,2.11-.01,3.16-.03h-.16l614.6-.41Zm-11.26-385.43l-11.67,160.36h240.85c20.48,0,19.05,0,20.48-19.46,2.66-61.44,5.73-122.88,8.81-185.34.49-3.28,1.06-6.06,1.77-8.77l-.13.58c14.75,20.48,27.85,39.53,40.96,58.16,32.77,47.92,65.33,96.05,98.51,143.36,4.01,4.89,9.88,8.11,16.51,8.6h.08s302.9,0,302.9,0c0,0,1.43,0,3.89-2.25l-9.42-11.67c-54.68-68.4-109.16-137.01-163.84-204.8-7.78-9.63-4.51-15.57,2.66-22.73l160.36-162.61c.87-1.29,1.69-2.77,2.38-4.32l.07-.18h-286.72c-1.1-.11-2.37-.18-3.66-.18-11.98,0-22.64,5.65-29.46,14.43l-.06.09c-39.32,48.95-79.67,97.07-119.81,145.61-3.28,3.89-6.55,7.58-9.83,11.27l-3.89-1.23,14.13-168.14h-246.58c-13.31,0-15.56,4.92-15.77,16.59-1.43,41.98-3.89,84.17-5.94,128.61-8.6-17.82-14.95-33.59-23.14-48.33-31.34-56.32-81.92-81.92-143.36-91.14-13.47-2.87-29.36-4.92-45.57-5.71l-.71-.03H113.05c-.08-1.63-.12-3.54-.12-5.46,0-24.59,7.22-47.49,19.66-66.7l-.29.48c24.95-43.13,70.86-71.69,123.45-71.69.52,0,1.04,0,1.56,0h-.08,1145.86c.67-.01,1.46-.02,2.26-.02,75.22,0,136.19,60.97,136.19,136.19,0,.44,0,.88,0,1.31v-.07c.96,141.45.96,282.9,0,424.35-2.97,69.86-57.45,126.1-126.27,131.86l-.5.03h-608.67c-185.76,0-371.51,1.43-557.26,1.84-72.8-4.4-130.7-62.51-134.74-135l-.02-.37c.31-3.24.74-6.11,1.32-8.93l-.09.53h81.92c131.48,0,262.96,0,394.24-1.43,92.98-1.43,163.84-40.96,207.05-126.98,5.12-10.24,9.63-20.48,14.54-30.92l2.87.21Zm-451.17,3.48l9.22-111c13.05-1.41,28.18-2.22,43.51-2.22,25.88,0,51.21,2.3,75.82,6.7l-2.59-.38c21.62,3.31,38.65,19.65,42.95,40.63l.06.33c.19,1.58.3,3.4.3,5.25,0,18.38-10.71,34.26-26.24,41.73l-.28.12c-15.56,9.18-33.84,15.63-53.35,18.15l-.72.08c-15.05.93-32.65,1.46-50.36,1.46-13.47,0-26.88-.31-40.21-.91l1.89.07h0Z"/>
</svg>