<?xml version="1.0" encoding="UTF-8"?>
<svg id="Layer_2" data-name="Layer 2" xmlns="http://www.w3.org/2000/svg" viewBox="0 0 110 100">
  <defs>
    <style>
      .cls-1 {
        fill: none;
        stroke: #000;
        stroke-miterlimit: 10;
      }

      .cls-2 {
        stroke-width: 0px;
      }
    </style>
  </defs>
  <rect class="cls-1" x=".5" y=".5" width="109" height="99" rx="18.35" ry="18.35"/>
  <rect class="cls-1" x="7.77" y="6.5" width="94.73" height="86" rx="12.38" ry="12.38"/>
  <line class="cls-1" x1="51.5" y1="13.5" x2="51.5" y2="82.5"/>
  <line class="cls-1" x1="45.5" y1="13.5" x2="45.5" y2="80.5"/>
  <line class="cls-1" x1="39.5" y1="14.5" x2="39.5" y2="74.5"/>
  <line class="cls-1" x1="57.5" y1="14.5" x2="57.5" y2="85.5"/>
  <line class="cls-1" x1="63.5" y1="17" x2="63.5" y2="84.5"/>
  <line class="cls-1" x1="69.5" y1="23" x2="69.5" y2="85.5"/>
  <path class="cls-1" d="M69.5,23.5c2,0,2.44.05,4,1,1.51.91,2.74,1.66,4,3,1.84,1.95,2.61,3.97,3,5,.47,1.26,1.21,3.3,1,6-.15,1.89-.75,3.39-1,4-.3.74-.53,1.32-1,2-1.35,1.96-2.67,1.87-3,3-.43,1.5,1.24,3.91,3,4,.32.02,1.19-.01,3-2,2.67-2.92,3.71-6.06,4-7,.74-2.39.85-4.33,1-7,.11-1.99-.83-4.99-1-6,0,0-1.76-3.71-3-5-2.81-2.93-5.95-4.18-8-5-.91-.36-1.77-.72-3-1-2.92-.66-7.43-1.34-9-1"/>
  <path class="cls-2" d="M68.99,84.4c.3,1.39-1.96,1.4-2.79,1.46-.49.03-1.34.26-1.63-.21-.32-.52-.44-1.26-.56-1.85-.11-.55-1.02-.43-.98.13.08,1.16-1.03,1.78-2.04,1.94-.52.08-3.29.4-2.9-.67.22-.61-.75-.87-.96-.27-.27.75.2,1.5.89,1.81.79.35,1.86.24,2.7.16,1.6-.16,3.45-1.11,3.32-2.98l-.98.13c.15.8.37,2.05,1.05,2.59s1.77.23,2.53.18c.88-.06,1.83-.12,2.55-.68.63-.49.94-1.23.77-2.02-.14-.63-1.1-.36-.96.27h0Z"/>
  <path class="cls-2" d="M57.98,14.84c2.23-1.09,4.72-1.41,7.17-1.51s4.84-.09,7.24.05,4.87.5,7.09,1.49,4.02,2.59,5.64,4.33c3.12,3.35,5.42,7.45,6.67,11.85.65,2.27,1.09,4.68,1.05,7.05-.04,2.68-1.14,5.01-2.32,7.35s-2.48,4.91-4.39,6.87c-.88.91-2.02,1.84-3.37,1.74-1.17-.08-2.42-1.45-1.35-2.49.46-.45-.25-1.16-.71-.71-.72.71-.85,1.81-.41,2.71.48.99,1.58,1.49,2.65,1.49,2.51,0,4.43-2.44,5.72-4.31,1.55-2.25,2.83-4.81,3.92-7.31.54-1.25.98-2.54,1.15-3.9.19-1.48.09-2.98-.1-4.46-.66-5.04-2.63-9.91-5.66-13.99-1.52-2.05-3.29-3.96-5.34-5.5s-4.62-2.49-7.23-2.9c-2.98-.46-6.04-.43-9.05-.39s-6.11.32-8.88,1.67c-.58.28-.07,1.15.5.86h0Z"/>
  <path class="cls-2" d="M52.03,13.58c-.44-1.31-1.84-1.94-3.15-1.82-.79.07-1.53.33-2.25.63-.65.27-1.31.54-1.68,1.17-.33.55.54,1.06.86.5.25-.41.77-.59,1.19-.76.57-.23,1.16-.46,1.77-.54.86-.11,1.99.16,2.3,1.08.2.61,1.17.35.96-.27h0Z"/>
  <path class="cls-2" d="M46.02,13.82c-1.04-1.16-2.69-1.67-4.2-1.27-1.37.36-3.08,1.7-2.64,3.3.17.62,1.14.36.96-.27-.15-.54.24-1.04.62-1.37.42-.38.95-.62,1.5-.74,1.13-.24,2.28.21,3.04,1.06.43.48,1.14-.23.71-.71h0Z"/>
  <path class="cls-2" d="M39.39,73.76c-2.87.75-5.84-.62-7.7-2.81-2.01-2.37-2.91-5.64-3.13-8.69-.12-1.64.05-3.28.71-4.79.62-1.41,1.56-2.52,2.71-3.52s1.4-2.23,1.3-3.72c-.09-1.22-.37-2.58-1.8-2.78-2.74-.38-5.23,1.97-6.73,3.97-1.65,2.2-2.78,4.78-3.37,7.46-1.15,5.28-.24,11.7,3.61,15.75,1.25,1.32,2.86,2.38,4.36,3.41,1.41.97,2.9,1.84,4.53,2.41,3.64,1.28,7.59.85,11.34.4.63-.07.64-1.08,0-1-3.22.38-6.56.79-9.76.02s-5.64-2.65-8.1-4.52c-1.31-1-2.38-2.12-3.2-3.55-.67-1.16-1.19-2.39-1.55-3.68-.73-2.57-.87-5.3-.44-7.94s1.41-5.23,2.91-7.48c.77-1.15,1.68-2.26,2.81-3.08.52-.38,1.1-.71,1.71-.92s1.75-.55,2.27-.04c.42.4.41,1.23.44,1.76.04.7.07,1.47-.32,2.09s-1.04.99-1.53,1.48-.9,1.01-1.27,1.57c-1.67,2.54-1.86,5.49-1.4,8.42s1.61,6.2,3.89,8.38c2.1,2.01,5.13,3.1,8,2.35.62-.16.36-1.13-.27-.96h0Z"/>
  <path class="cls-2" d="M50.95,82.2c-.93,1.95-3.1,2.6-5.1,2.8-2.68.27-5.45,0-8.13-.12s-5.44-.35-7.97-1.48c-2.07-.92-3.93-2.26-5.56-3.83s-3.16-3.52-4.42-5.51c-1.33-2.09-2.62-4.37-3.35-6.75-.81-2.63-.6-5.52-.1-8.2.45-2.42,1.23-4.78,2.39-6.96,1.27-2.37,3.04-4.71,5.31-6.21,1.07-.71,2.74-1.41,3.84-.38.56.53,1.25,1.9.4,2.49-.53.36-.03,1.23.5.86,1.71-1.19.63-3.87-.98-4.61-2.56-1.18-5.34,1.38-6.92,3.1-3.74,4.04-5.63,9.57-5.93,15.01-.09,1.58,0,3.19.4,4.72s1.06,2.86,1.75,4.21c1.2,2.35,2.63,4.6,4.31,6.64s3.56,3.8,5.77,5.16c2.35,1.45,4.93,2.27,7.67,2.54,1.87.19,3.76.23,5.63.3,1.66.06,3.33.16,4.99.04,2.46-.18,5.24-.92,6.39-3.34.28-.58-.59-1.09-.86-.5h0Z"/>
</svg>