<?xml version="1.0" encoding="UTF-8"?>
<svg id="Layer_1" data-name="Layer 1" xmlns="http://www.w3.org/2000/svg" viewBox="0 0 1316.57 877.71">
  <defs>
    <style>
      .cls-1 {
        stroke-width: 0px;
      }
    </style>
  </defs>
  <path class="cls-1" d="m383.41,460h-7.46c-17.9,0-26.84,6.1-26.84,18.29,0,8.39,3.8,12.58,11.41,12.58,6.49,0,11.82-2.85,16.02-8.56,4.19-5.71,6.49-13.14,6.88-22.31h0Zm225.72-20.55h35.4v-1.68c.39-1.51.49-2.76.29-3.73-.2-.98-.39-2.32-.59-4.02-.2-1.71-.59-3.22-1.17-4.53-.59-1.32-1.44-2.56-2.56-3.73-1.12-1.17-2.56-2.12-4.32-2.85-1.76-.73-3.95-1.12-6.58-1.17-10.68,0-17.53,7.24-20.55,21.72h.07Zm308.59,20.55h-6.88c-18.29,0-27.43,6.1-27.43,18.29,0,8.39,3.8,12.58,11.41,12.58,6.49,0,11.82-2.85,16.02-8.56,4.19-5.71,6.49-13.14,6.88-22.31h0Zm182.27-14.85c0-15.6-5.71-23.41-17.12-23.41-7.22,0-13.12,3.8-17.7,11.41-4.58,7.61-6.88,17.31-6.88,29.11,0,15.99,5.34,23.99,16.02,23.99,7.61,0,13.8-3.8,18.58-11.41,4.78-7.61,7.17-17.51,7.17-29.7h-.07Zm-825.71-80.6h49.74l-25.16,149.72h-32.04l18.29-114.83-40.59,114.83h-22.31l-2.27-114.32-19.46,114.32h-30.28l25.16-149.72h46.3l1.17,93.11,31.45-93.11Zm144.6,61.15c0,2.29-.76,10.29-2.27,23.99-6.1,38.47-9.34,60-9.73,64.59h-26.84l.59-12.58c-7.61,9.9-18.65,14.85-33.13,14.85-8.78,0-15.92-3.05-21.43-9.14-5.51-6.1-8.27-14.09-8.27-23.99,0-14.87,4.95-26.4,14.85-34.6,9.9-8.19,23.8-12.29,41.69-12.29,5.32,0,9.7.2,13.17.59,0-1.12.1-2.17.29-3.15.2-.98.39-1.83.59-2.56.2-.73.29-1.29.29-1.68,0-7.61-6.85-11.41-20.55-11.41-11.07,0-22.31,1.9-33.72,5.71,0-1.51,1.34-10.65,4.02-27.43,14.48-4.19,27.23-6.29,38.25-6.29,28.18,0,42.28,11.8,42.28,35.4h-.07Zm89.09-33.13l-4.53,28.01c-8.39-1.12-16.19-1.68-23.41-1.68-10.29,0-15.43,3.24-15.43,9.73,0,3.02.85,5.32,2.56,6.88,1.71,1.56,5.8,3.66,12.29,6.29,15.21,7.22,22.82,18.65,22.82,34.3,0,27.45-16.58,40.98-49.74,40.59-12.97,0-24.02-1.15-33.13-3.44,0-.78,1.34-10.12,4.02-28.01,11.07,3.02,20.77,4.53,29.11,4.53,12.19,0,18.29-3.61,18.29-10.83,0-2.68-.85-4.88-2.56-6.58s-5.8-4.1-12.29-7.17c-16.38-7.61-24.58-18.85-24.58-33.72,0-27.45,15.99-41.18,47.98-41.18,11.41,0,20.94.76,28.6,2.27h0Zm50.32,0h16.02l-4.02,29.7h-16.6c-.78,6.49-2.02,14.19-3.73,23.11-1.71,8.92-3.05,16.26-4.02,22.02-.98,5.75-1.46,9.19-1.46,10.31,0,6.1,3.61,9.14,10.83,9.14,3.02,0,6.07-.39,9.14-1.17l-4.53,26.84c-8,2.68-15.6,4.02-22.82,4.02-16.38,0-24.97-8.95-25.75-26.84,0-4.58,1.51-15.26,4.53-32.04,1.12-7.61,5.88-35.43,14.26-83.46h31.45l-3.29,18.36Zm116,41.76c0,8.78-1.34,18.68-4.02,29.7h-63.41c-1.12,8.39.78,14.68,5.71,18.87,4.92,4.19,12.17,6.29,21.72,6.29,11.41,0,22.45-2.66,33.13-7.97l-5.12,30.87c-11.41,3.02-22.26,4.53-32.55,4.53-36.18,0-54.27-18.09-54.27-54.27,0-20.97,5.24-38.2,15.73-51.71,10.48-13.51,23.72-20.26,39.72-20.26,13.31,0,23.89,4,31.74,12,7.85,8,11.75,18.68,11.7,32.04l-.07-.07Zm79.43-42.35c-4.97,8.78-9.17,20.58-12.58,35.4-8.39-.78-14.29,3.78-17.7,13.68-3.41,9.9-8.17,34.28-14.26,73.14h-32.04l1.68-7.97c8.39-49.54,13.92-87.45,16.6-113.74h29.11l-1.68,18.87c5.32-8,10.17-13.6,14.56-16.82s9.83-4.07,16.31-2.56Zm106.86-23.41l-5.12,32.55c-10.68-5.32-20.21-7.97-28.6-7.97-11.8,0-21.5,5.24-29.11,15.73-7.61,10.48-11.41,23.92-11.41,40.3,0,11.41,2.56,20.36,7.68,26.84s12.46,9.73,22.02,9.73c8,0,17.14-2.49,27.43-7.46l-5.71,33.72c-10.68,3.02-20.21,4.53-28.6,4.53-17.16,0-30.79-5.8-40.89-17.41s-15.14-27.33-15.14-47.18c0-26.67,6.75-48.49,20.26-65.46,13.51-16.97,30.94-25.45,52.3-25.45,9.9,0,21.53,2.49,34.89,7.46v.07Zm92.53,57.12c0,6.88-.76,14.87-2.27,23.99-4.97,30.09-8.22,51.61-9.73,64.59h-26.26l.59-12.58c-7.61,9.9-18.85,14.85-33.72,14.85-8.78,0-15.82-3.05-21.14-9.14-5.32-6.1-7.97-14.09-7.97-23.99,0-14.87,4.85-26.4,14.56-34.6,9.7-8.19,23.5-12.29,41.4-12.29,5.71,0,10.09.2,13.17.59.78-2.68,1.17-5.17,1.17-7.46,0-7.61-6.85-11.41-20.55-11.41-11.07,0-22.31,1.9-33.72,5.71,0-1.51,1.51-10.65,4.53-27.43,14.48-4.19,27.23-6.29,38.25-6.29,27.79,0,41.69,11.8,41.69,35.4v.07Zm80.6-33.72c-5.32,9.12-9.31,20.92-12,35.4-8.78-.78-14.77,3.61-17.99,13.17-3.22,9.56-8.07,34.13-14.56,73.73h-32.04l1.68-7.97c7.22-39.64,12.75-77.56,16.6-113.74h29.7c0,4.19-.76,10.48-2.27,18.87,5.71-8,10.75-13.6,15.14-16.82,4.39-3.22,9.63-4.07,15.73-2.56v-.07Zm80.53-27.43h32.04l-24.58,149.72h-30.28l1.68-10.83c-8.78,8.78-18.68,13.17-29.7,13.17-11.8,0-21.24-4.56-28.31-13.68s-10.61-21.31-10.61-36.57c0-20.19,5.24-37.72,15.73-52.59,10.48-14.87,22.77-22.31,36.86-22.31,11.8,0,21.89,5.53,30.28,16.6l6.88-43.52Zm63.49,74.31c0-56.37-13.8-108.37-41.4-156.01-27.6-47.64-65.32-85.36-113.15-113.15-47.84-27.79-99.94-41.69-156.31-41.69-68.95,0-131.44,20.94-187.47,62.83,48.37,44.18,80.94,98.28,97.72,162.3h-28.6c-16.77-57.15-46.86-105.35-90.26-144.6-43.45,39.25-73.53,87.45-90.26,144.6h-28.6c16.77-64.02,49.35-118.13,97.72-162.3-55.98-41.89-118.47-62.83-187.47-62.83-56.37,0-108.47,13.9-156.31,41.69-47.84,27.79-85.55,65.51-113.15,113.15-27.6,47.64-41.4,99.64-41.4,156.01s13.8,108.37,41.4,156.01,65.32,85.36,113.15,113.15c47.84,27.79,99.94,41.69,156.31,41.69,68.95,0,131.44-20.94,187.47-62.83-45.69-42.28-77.12-92.55-94.28-150.82h28.6c17.51,52.57,46.45,96.94,86.82,133.12,40.37-36.18,69.32-80.55,86.82-133.12h28.6c-17.16,58.27-48.59,108.54-94.28,150.82,55.98,41.89,118.47,62.83,187.47,62.83,56.37,0,108.47-13.9,156.31-41.69,47.84-27.79,85.55-65.51,113.15-113.15,27.6-47.64,41.4-99.64,41.4-156.01Zm138.83-365.71v731.43c0,19.8-7.24,36.94-21.72,51.42-14.48,14.48-31.62,21.72-51.42,21.72H73.14c-19.8,0-36.94-7.24-51.42-21.72C7.24,841.51,0,824.37,0,804.57V73.14c0-19.8,7.24-36.94,21.72-51.42C36.21,7.24,53.35,0,73.14,0h1170.29c19.8,0,36.94,7.24,51.42,21.72,14.48,14.48,21.72,31.62,21.72,51.42h0Z"/>
</svg>