<?xml version="1.0" encoding="UTF-8"?>
<svg id="Layer_1" data-name="Layer 1" xmlns="http://www.w3.org/2000/svg" viewBox="0 0 1657.15 920.8">
  <defs>
    <style>
      .cls-1 {
        fill: #fff;
      }

      .cls-1, .cls-2, .cls-3 {
        stroke-width: 0px;
      }

      .cls-1, .cls-3 {
        fill-rule: evenodd;
      }
    </style>
  </defs>
  <path class="cls-2" d="m827.19,920.8c-204.8,0-409.6-2.05-614.4,0C96.67,920.7,2.3,827.7,0,712.12V207.64c0-103.57,75.67-189.46,174.74-205.42l1.19-.16c7.51-1.31,16.16-2.06,24.98-2.06h2.16-.11,1252.76c102.4,0,197.84,90.52,199.89,191.9,2.46,117.96,1.23,236.13,1.23,354.3,0,61.44,0,122.88-1.23,182.89-8.3,105.26-93.97,188.02-199.74,191.68h-628.67v.02h-.01Zm0-30.11h618.7c.86.02,1.86.02,2.87.02,98.13,0,177.78-79.15,178.58-177.1v-.08c1.23-168.62,1.23-337.24,0-505.86-1.14-97.12-79.45-175.58-176.41-176.95H206.24c-1.3-.04-2.84-.06-4.38-.06-10.11,0-20,.99-29.56,2.88l.96-.16C90.78,51.32,29.9,123.7,29.9,210.31v1.98-.1,497.26c0,13.57,1.49,26.78,4.32,39.5l-.22-1.21c17.25,82.39,89.29,143.39,175.59,143.39,1.06,0,2.11-.01,3.16-.03h-.16l614.6-.41h0Z"/>
  <path class="cls-3" d="m1396.08,460.41c0-184.18-149.31-333.5-333.49-333.5-79.92,0-152.65,27.97-210.08,74.85,43.81,42.3,77.26,95.26,95.2,155.12h-27.71c-17.37-53.22-47.87-100.18-87.52-137.86-39.92,38.01-69.79,85.32-86.95,137.7h-27.71c17.7-58.77,50.13-112.03,94.21-154.73-57.29-46.4-129.67-75.09-209.15-75.09-184.18,0-333.5,149.31-333.5,333.5s149.31,333.49,333.5,333.49c79.47,0,151.85-28.69,209.15-75.09-43.47-42.17-76.35-95.2-94.21-154.73h27.71c17.16,52.38,47.04,99.69,86.95,137.7,39.66-37.69,70.15-84.64,87.52-137.87h27.71c-17.94,59.86-51.39,112.83-95.2,155.12,57.43,46.88,130.16,74.85,210.08,74.85,184.18,0,333.49-149.31,333.49-333.48Z"/>
  <path class="cls-1" d="m1150.98,538.53l23.03-123.4h29.11l3.05,12.16c5.22-6.09,15.21-12.16,32.16-12.16l-9.12,32.14c-8.26,0-23.91-2.16-33.89,34.77l-10.43,56.49h-33.9Zm-446.23-154.76h33.55l-6.89,32.7h18.06l-6.01,26.67h-17.21l-9.47,49.9c-1.72,9.47-.86,18.08,18.5,15.07l-2.15,24.94c-7.31,4.73-17.21,6.03-24.96,6.03s-33.12-4.74-26.66-38.29l23.23-117.01h0Zm145.4,99.8c3.87-19.8,12.91-68.83-46.02-68.83-54.21,0-61.09,53.77-62.38,61.51-1.29,7.75-2.15,62.38,55.92,62.38,14.2.44,34.85-1.29,43.03-5.6l5.16-25.37c-5.16,1.28-24.53,3.01-37.87,3.01s-34.84.87-30.97-27.1h73.13Zm-177.23-39.57l7.74-24.96c-15.92-6.02-28.39-4.72-33.12-4.72s-45.02-.49-51.19,29.25c-4.73,22.8,3.62,32.23,11.62,35.7,12.91,5.6,20.23,10.76,27.11,14.2,8.51,4.26,6.95,18.5-4.31,18.5-5.17,0-27.53,2.58-44.31-3.02l-4.73,25.38c15.49,4.31,27.95,4.31,39.58,4.31,8.17,0,48.18,2.15,53.76-34.85,2.73-18.04-5.16-26.25-11.62-30.1-6.45-4.31-17.21-10.33-24.09-13.35-6.89-3.01-12.05-14.62.43-18.06,7.74-.87,23.65-.87,33.12,1.72h0Zm-217.67,94.63l27.96-148.84h-55.06l-40.88,90.34-6.46-90.34h-53.77l-28.82,148.84h33.55l20.65-107.54,9.04,107.54h31.83l46.9-104.96-19.79,104.96h34.85Zm36.98-120.01l-5.16,26.67c8.18-.85,30.12-4.3,41.73-3.87,11.62.43,24.52-1.29,20.65,17.21-8.6.87-68.83-8.6-78.28,43.01-3.87,25.39,18.06,38.29,35.27,37.44,17.21-.87,21.94-3.02,27.96-7.33l4.3,6.89h31.39l13.34-67.1c3.44-16.78,9.03-57.22-47.32-57.22-10.32.44-21.93,0-43.88,4.31h0Zm543.75,5.58c-8.62-5.17-14.62-6.02-25.82-6.02s-36.14,10.69-40.86,40.87c-5.6,35.7,18.92,53.33,53.34,41.73l9.89,30.11c-11.18,5.16-22.37,7.74-40.87,7.74-34.85,0-72.7-30.96-55.49-93.78,12.69-46.28,52.49-63.23,75.72-62.37,27.52,1.03,37.43,10.32,46.03,19.79l-21.94,21.93h0Zm286.07,5.16c-6.46-4.72-10.31-14.62-26.25-14.62-18.5,0-47.32-3.44-63.66,52.48-10.93,37.38,11.18,71.41,35.26,71.41,11.19-.42,22.37-5.16,29.25-9.89l4.32,9.89h36.13l29.26-156.58h-35.29l-9.02,47.31h0Zm-261.98-10.74l-5.17,26.67c8.19-.85,30.11-4.3,41.73-3.87,11.62.43,24.53-1.29,20.65,17.21-8.6.87-68.83-8.6-78.28,43.01-3.88,25.39,18.05,38.29,35.26,37.44,17.22-.87,21.94-3.02,27.97-7.33l4.31,6.89h31.39l13.35-67.1c3.44-16.78,9.03-57.22-47.33-57.22-10.31.44-21.93,0-43.87,4.31h0Z"/>
  <path class="cls-3" d="m779.18,461.2h41.73c2.15-12.05-1.72-22.37-15.05-22.37s-22.8,6.89-26.68,22.37Zm-235.3,22.37c-5.6-.88-18.07-4.31-28.83,3.01s-13.76,20.21-2.58,24.53c10.76,4.13,26.66-3.01,28.82-14.21l2.58-13.32h0Zm766.15-3.88c3.44-11.18,1.56-25.14-2.15-30.1-10.31-13.76-34.05-2.88-41.29,24.09-4.73,17.63,5.6,30.96,17.21,30.96,12.48,0,20.22-9.9,26.24-24.96h0Zm-198.31,3.88c-5.6-.88-18.07-4.31-28.82,3.01-10.76,7.31-13.77,20.21-2.58,24.53,10.77,4.13,26.66-3.01,28.81-14.21l2.59-13.32h0Z"/>
  <path class="cls-1" d="m851.12,538.63l22.8-122.16h28.82l3.01,12.05c5.17-6.03,15.07-12.05,31.83-12.05l-8.6,32.27c-8.16,0-24.09-2.58-33.98,33.97l-10.32,55.93h-33.56s0,0,0,0Z"/>
</svg>