<?xml version="1.0" encoding="UTF-8"?>
<svg id="Layer_1" data-name="Layer 1" xmlns="http://www.w3.org/2000/svg" xmlns:xlink="http://www.w3.org/1999/xlink" viewBox="0 0 1657.14 920.8">
  <defs>
    <style>
      .cls-1 {
        clip-path: url(#clippath);
      }

      .cls-2 {
        fill: none;
      }

      .cls-2, .cls-3 {
        stroke-width: 0px;
      }

      .cls-4 {
        isolation: isolate;
      }
    </style>
    <clipPath id="clippath">
      <rect class="cls-2" x="228.78" y="-175.38" width="1273.28" height="1273.28"/>
    </clipPath>
  </defs>
  <path class="cls-3" d="m827.19,920.8c-204.8,0-409.6-2.05-614.4,0-116.12-.1-210.49-93.1-212.79-208.68V207.64C0,104.07,75.67,18.18,174.74,2.22l1.19-.16c7.51-1.31,16.16-2.06,24.98-2.06.72,0,1.44,0,2.16,0h-.11,1252.76c102.4,0,197.84,90.52,199.89,191.9,2.46,117.96,1.23,236.13,1.23,354.3,0,61.44,0,122.88-1.23,182.89-8.3,105.26-93.97,188.02-199.74,191.68h-628.67s-.01.02-.01.02Zm0-30.11h618.7c.86.02,1.86.02,2.87.02,98.13,0,177.78-79.15,178.58-177.1v-.08c1.23-168.62,1.23-337.24,0-505.86-1.14-97.12-79.45-175.58-176.41-176.95H206.24c-1.3-.04-2.84-.06-4.38-.06-10.11,0-20,.99-29.56,2.88l.96-.16C90.78,51.32,29.9,123.7,29.9,210.31v1.98-.1,497.26c0,13.57,1.49,26.78,4.32,39.5l-.22-1.21c17.25,82.39,89.29,143.39,175.59,143.39,1.06,0,2.11-.01,3.16-.03h-.16l614.6-.41h0Z"/>
  <g class="cls-1">
    <image class="cls-4" width="736" height="736" transform="translate(228.78 -175.38) scale(1.73)" xlink:href="../../../../../Downloads/MobilePay app icon.png"/>
  </g>
</svg>