<?xml version="1.0" encoding="UTF-8"?>
<svg id="Layer_1" data-name="Layer 1" xmlns="http://www.w3.org/2000/svg" viewBox="0 0 28 20">
  <defs>
    <style>
      .cls-1 {
        fill: none;
        stroke: #000;
        stroke-miterlimit: 10;
        stroke-width: 2px;
      }

      .cls-2 {
        stroke-width: 0px;
      }
    </style>
  </defs>
  <path class="cls-1" d="m25,19H3c-1.11,0-2-.9-2-2V3c0-1.11.89-2,2-2h22c1.1,0,2,.89,2,2v14c0,1.1-.9,2-2,2Z"/>
  <g>
    <path class="cls-2" d="m7.29,10.34l-.62-3.13s-.28-.68-1-.68h-2.83s3.61,1.1,4.45,3.81Z"/>
    <polygon class="cls-2" points="10.78 13.41 12.61 13.41 13.72 6.51 11.87 6.51 10.78 13.41"/>
    <path class="cls-2" d="m9.18,6.51l-1.68,4.92s-.1-.42-.14-.68c-.95-2.14-2.5-2.92-2.5-2.92l1.47,5.59h0s2.02,0,2.02,0l2.79-6.9h-1.96Z"/>
    <path class="cls-2" d="m16.32,8.49c0-.4.32-.7,1.23-.7.59,0,1.27.45,1.27.45l.3-1.52s-.87-.34-1.72-.34c-1.93,0-2.92.95-2.92,2.16,0,2.18,2.54,1.88,2.54,3,0,.19-.15.64-1.21.64s-1.76-.4-1.76-.4l-.32,1.46s.68.4,1.99.4,3.13-1.02,3.13-2.48c0-1.76-2.54-1.88-2.54-2.67Z"/>
    <path class="cls-2" d="m23.75,6.51h-1.93l-3.01,6.9h1.82l.38-.99h2.29l.2.99h1.67l-1.42-6.9Zm-2.23,4.6l1-2.61.52,2.61h-1.52Z"/>
  </g>
</svg>