<?xml version="1.0" encoding="UTF-8"?>
<svg id="Layer_1" data-name="Layer 1" xmlns="http://www.w3.org/2000/svg" viewBox="0 0 1657.15 920.8">
  <defs>
    <style>
      .cls-1 {
        stroke-width: 0px;
      }
    </style>
  </defs>
  <path class="cls-1" d="m827.19,920.8c-204.8,0-409.6-2.05-614.4,0C96.67,920.7,2.3,827.7,0,712.12V207.64c0-103.57,75.67-189.46,174.74-205.42l1.19-.16c7.51-1.31,16.16-2.06,24.98-2.06h2.16-.11,1252.76c102.4,0,197.84,90.52,199.89,191.9,2.46,117.96,1.23,236.13,1.23,354.3,0,61.44,0,122.88-1.23,182.89-8.3,105.26-93.97,188.02-199.74,191.68h-628.67v.02h-.01Zm0-30.11h618.7c.86.02,1.86.02,2.87.02,98.13,0,177.78-79.15,178.58-177.1v-.08c1.23-168.62,1.23-337.24,0-505.86-1.14-97.12-79.45-175.58-176.41-176.95H206.24c-1.3-.04-2.84-.06-4.38-.06-10.11,0-20,.99-29.56,2.88l.96-.16C90.78,51.32,29.9,123.7,29.9,210.31v1.98-.1,497.26c0,13.57,1.49,26.78,4.32,39.5l-.22-1.21c17.25,82.39,89.29,143.39,175.59,143.39,1.06,0,2.11-.01,3.16-.03h-.16l614.6-.41h0Z"/>
  <g>
    <path class="cls-1" d="m443.28,485.85l-34-172.62s-15.32-37.48-55.28-37.48h-156.19s199.12,60.79,245.48,210.09Z"/>
    <polygon class="cls-1" points="635.9 655.38 736.87 655.38 797.93 274.88 695.75 274.88 635.9 655.38"/>
    <path class="cls-1" d="m547.83,274.88l-92.37,270.99s-5.29-23.09-7.55-37.42c-52.63-117.94-138-161.15-138-161.15l81.07,308.08v-.06h111.22l153.66-380.45h-108.02Z"/>
    <path class="cls-1" d="m941.17,383.84c0-22.05,17.53-38.47,67.73-38.47,32.68,0,70.05,24.58,70.05,24.58l16.37-84.05s-47.84-18.68-94.63-18.68c-106.15,0-160.99,52.52-160.99,118.99,0,120.2,139.99,103.78,139.99,165.56,0,10.53-8.16,35-66.47,35s-96.94-22.21-96.94-22.21l-17.47,80.63s37.37,22.1,109.73,22.1,172.73-56,172.73-136.52c0-96.83-140.1-103.78-140.1-146.93Z"/>
    <path class="cls-1" d="m1350.5,274.88h-106.2l-165.73,380.45h100.25l20.78-54.29h126.37l10.86,54.29h91.87l-78.21-380.45Zm-122.9,253.47l54.89-143.74,28.82,143.74h-83.72Z"/>
  </g>
</svg>